<svg width="104" height="36" viewBox="0 0 104 36" fill="none" xmlns="http://www.w3.org/2000/svg">
<path d="M15.2161 34.896H12.9121V22.608L5.57005e-05 0.575994H2.78406L12.7681 17.952C13.3441 18.976 13.8241 19.872 14.2081 20.64C14.3361 20.224 14.7841 19.36 15.5521 18.048L25.5361 0.575994H28.1761L15.2161 22.704V34.896ZM36.9447 30.336C33.7767 26.912 32.1927 22.704 32.1927 17.712C32.1927 12.72 33.7767 8.528 36.9447 5.136C40.1447 1.71199 44.1767 -6.67572e-06 49.0407 -6.67572e-06C53.9047 -6.67572e-06 57.9367 1.71199 61.1367 5.136C64.3367 8.528 65.9367 12.72 65.9367 17.712C65.9367 22.704 64.3367 26.912 61.1367 30.336C57.9367 33.76 53.9047 35.472 49.0407 35.472C44.1767 35.472 40.1447 33.76 36.9447 30.336ZM38.6727 6.62399C36.0167 9.59999 34.6887 13.296 34.6887 17.712C34.6887 22.128 36.0167 25.84 38.6727 28.848C41.3607 31.856 44.8167 33.36 49.0407 33.36C53.2967 33.36 56.7527 31.856 59.4087 28.848C62.0967 25.84 63.4407 22.128 63.4407 17.712C63.4407 13.296 62.0967 9.59999 59.4087 6.62399C56.7527 3.61599 53.2967 2.11199 49.0407 2.11199C44.7847 2.11199 41.3287 3.61599 38.6727 6.62399ZM99.7197 31.584C97.5117 34.176 94.1517 35.472 89.6397 35.472C85.1277 35.472 81.7517 34.16 79.5117 31.536C77.3037 28.912 76.1997 25.328 76.1997 20.784V0.575994H78.5037V20.784C78.5037 29.232 82.1997 33.456 89.5917 33.456C97.0157 33.456 100.728 29.232 100.728 20.784V0.575994H103.032V20.784C103.032 25.36 101.928 28.96 99.7197 31.584Z" fill="black"/>
</svg>
